<svg width="496.59" height="141.55" version="1.1" viewBox="0 0 496.59 141.55" xml:space="preserve" xmlns="http://www.w3.org/2000/svg"><defs><clipPath id="clipPath16"><path d="M 0,106.164 H 372.444 V 0 H 0 Z"/></clipPath></defs><g transform="matrix(1.3333 0 0 -1.3333 -.00026667 141.55)"><g clip-path="url(#clipPath16)"><g transform="translate(48.156 68.93)"><path d="m0 0c10.151-4.744 19.157-6.145 26.57-5.987v25.662c0 4.044-3.54 7.355-7.868 7.355h-38.289c-4.326 0-7.867-3.311-7.867-7.355v-13.022c7.715-0.054 16.963-1.751 27.454-6.653" fill="#0033a1"/></g><g transform="translate(45.224 23.613)"><path d="m0 0c-9.462 4.422-17.714 5.939-24.521 5.999v-21.09c0-4.046 3.54-7.355 7.867-7.355h38.288c4.326 0 7.869 3.309 7.869 7.355v8.446c-0.378-6e-3 -0.754-0.014-1.136-0.014-8.088 0-17.696 1.673-28.367 6.659" fill="#0033a1"/></g><g transform="translate(48.156 63.302)"><path d="m0 0c-23.146 10.815-40.236 6.039-48.156 2.399v-7.013c3.818 2.343 20.345 10.759 45.223-0.868 10.672-4.987 20.279-6.659 28.368-6.659 10.117 0 17.841 2.613 22.301 4.63v6.969c-3.246-1.919-21.774-11.591-47.736 0.542" fill="#6babe5"/></g><g transform="translate(48.156 49.245)"><path d="m0 0c-23.146 10.815-40.236 6.039-48.156 2.399v-7.011c3.818 2.341 20.345 10.757 45.223-0.87 10.672-4.987 20.279-6.659 28.368-6.659 10.117 0 17.841 2.613 22.301 4.63v6.969c-3.246-1.919-21.774-11.591-47.736 0.542" fill="#6babe5"/></g><g transform="translate(48.156 35.187)"><path d="m0 0c-23.146 10.815-40.236 6.039-48.156 2.399v-7.011c3.818 2.341 20.345 10.759 45.223-0.87 10.672-4.987 20.279-6.659 28.368-6.659 10.117 0 17.841 2.613 22.301 4.63v6.969c-3.246-1.919-21.774-11.591-47.736 0.542" fill="#6babe5"/></g><g transform="translate(139.03 .5618)"><path d="m0 0h6.185v27.55c1.545 1.125 3.115 2.061 4.708 2.812 1.593 0.748 3.305 1.124 5.132 1.124 2.249 0 3.98-0.47 5.199-1.406 1.218-0.937 1.828-2.53 1.828-4.779v-25.301h6.185v26.706c0 3.656-1.008 6.301-3.023 7.942-2.015 1.64-4.848 2.459-8.504 2.459-1.967 0-4.076-0.41-6.325-1.229-2.249-0.82-4.428-1.979-6.535-3.479-1.781 3.139-5.178 4.708-10.192 4.708-3.936 0-7.87-1.405-11.806-4.216l-1.687 3.654h-4.217v-36.545h6.184v27.55c1.547 1.125 3.116 2.061 4.709 2.812 1.592 0.748 3.303 1.124 5.13 1.124 2.249 0 3.982-0.47 5.202-1.406 1.217-0.937 1.827-2.53 1.827-4.779zm36.827 31.204h5.622v-31.204h6.185v36.545h-0.562c-1.405 0-3.14-0.069-5.201-0.209-2.061-0.142-4.077-0.352-6.044-0.634zm11.773 12.826c0.772 0.774 1.16 1.793 1.16 3.059 0 1.263-0.388 2.283-1.16 3.056-0.774 0.774-1.793 1.16-3.059 1.16-1.265 0-2.283-0.386-3.056-1.16-0.774-0.773-1.16-1.793-1.16-3.056 0-1.266 0.386-2.285 1.16-3.059 0.773-0.772 1.791-1.159 3.056-1.159 1.266 0 2.285 0.387 3.059 1.159m31.836-41.851c2.413 1.827 3.62 4.568 3.62 8.222 0 1.548-0.246 2.869-0.738 3.971-0.491 1.101-1.159 2.039-2.003 2.812-0.843 0.772-1.827 1.428-2.952 1.967-1.124 0.538-2.319 0.996-3.585 1.372l-5.06 1.685c-1.265 0.516-2.378 1.089-3.338 1.723-0.962 0.632-1.441 1.651-1.441 3.057 0 0.937 0.222 1.709 0.667 2.319 0.446 0.607 1.044 1.089 1.794 1.441 0.747 0.352 1.591 0.608 2.528 0.774 0.938 0.162 1.9 0.246 2.883 0.246 1.405 0 2.987-0.212 4.744-0.634s3.548-1.054 5.376-1.897v5.621c-1.686 0.844-3.385 1.43-5.094 1.757-1.711 0.328-3.481 0.492-5.308 0.492-1.451 0-3.01-0.14-4.674-0.42-1.663-0.281-3.186-0.809-4.568-1.581-1.381-0.774-2.528-1.841-3.442-3.198-0.914-1.36-1.371-3.093-1.371-5.202 0-1.545 0.269-2.881 0.807-4.006 0.538-1.124 1.254-2.073 2.145-2.845 0.89-0.774 1.885-1.419 2.987-1.933 1.099-0.516 2.237-0.962 3.408-1.335l4.428-1.406c1.732-0.516 3.103-1.171 4.11-1.969 1.008-0.796 1.512-1.827 1.512-3.093 0-1.029-0.222-1.897-0.668-2.598-0.446-0.704-1.053-1.256-1.827-1.652-0.774-0.399-1.641-0.679-2.601-0.843-0.959-0.166-1.979-0.246-3.057-0.246-1.687 0-3.572 0.316-5.657 0.947-2.085 0.634-4.042 1.442-5.869 2.425v-5.903c1.827-0.984 3.726-1.699 5.693-2.143 1.967-0.446 4.006-0.668 6.115-0.668 4.544 0 8.023 0.914 10.436 2.741m32.891 0c2.413 1.827 3.62 4.568 3.62 8.222 0 1.548-0.246 2.869-0.738 3.971-0.491 1.101-1.159 2.039-2.003 2.812-0.843 0.772-1.827 1.428-2.952 1.967-1.124 0.538-2.319 0.996-3.585 1.372l-5.059 1.685c-1.266 0.516-2.379 1.089-3.339 1.723-0.959 0.632-1.439 1.651-1.439 3.057 0 0.937 0.22 1.709 0.665 2.319 0.446 0.607 1.044 1.089 1.794 1.441 0.749 0.352 1.591 0.608 2.531 0.774 0.935 0.162 1.897 0.246 2.88 0.246 1.406 0 2.987-0.212 4.744-0.634s3.548-1.054 5.378-1.897v5.621c-1.688 0.844-3.387 1.43-5.096 1.757-1.711 0.328-3.48 0.492-5.308 0.492-1.451 0-3.01-0.14-4.674-0.42-1.663-0.281-3.186-0.809-4.567-1.581-1.382-0.774-2.529-1.841-3.443-3.198-0.913-1.36-1.371-3.093-1.371-5.202 0-1.545 0.27-2.881 0.807-4.006 0.54-1.124 1.254-2.073 2.145-2.845 0.89-0.774 1.886-1.419 2.987-1.933 1.1-0.516 2.237-0.962 3.408-1.335l4.428-1.406c1.734-0.516 3.103-1.171 4.111-1.969 1.007-0.796 1.511-1.827 1.511-3.093 0-1.029-0.222-1.897-0.668-2.598-0.446-0.704-1.053-1.256-1.827-1.652-0.774-0.399-1.639-0.679-2.601-0.843-0.959-0.166-1.979-0.246-3.056-0.246-1.688 0-3.573 0.316-5.658 0.947-2.085 0.634-4.04 1.442-5.867 2.425v-5.903c1.827-0.984 3.724-1.699 5.691-2.143 1.969-0.446 4.006-0.668 6.116-0.668 4.543 0 8.022 0.914 10.435 2.741m8.68 29.025h5.623v-31.204h6.186v36.545h-0.564c-1.406 0-3.139-0.069-5.2-0.209-2.063-0.142-4.076-0.352-6.045-0.634zm11.773 12.826c0.773 0.774 1.159 1.793 1.159 3.059 0 1.263-0.386 2.283-1.159 3.056-0.774 0.774-1.794 1.16-3.057 1.16-1.265 0-2.285-0.386-3.059-1.16-0.771-0.773-1.159-1.793-1.159-3.056 0-1.266 0.388-2.285 1.159-3.059 0.774-0.772 1.794-1.159 3.059-1.159 1.263 0 2.283 0.387 3.057 1.159m33.698-43.186c2.061 0.935 3.785 2.237 5.166 3.9s2.425 3.654 3.129 5.973c0.701 2.319 1.053 4.838 1.053 7.557 0 2.81-0.306 5.375-0.913 7.694-0.61 2.319-1.57 4.298-2.881 5.94-1.314 1.639-2.977 2.916-4.99 3.83-2.015 0.913-4.428 1.369-7.239 1.369-2.812 0-5.283-0.456-7.414-1.369-2.133-0.914-3.927-2.191-5.378-3.83-1.453-1.642-2.543-3.621-3.268-5.94-0.726-2.319-1.09-4.884-1.09-7.694 0-2.813 0.34-5.378 1.02-7.697 0.679-2.319 1.697-4.3 3.056-5.939 1.36-1.639 3.081-2.917 5.166-3.83 2.085-0.914 4.534-1.37 7.345-1.37 2.764 0 5.177 0.468 7.238 1.406m-11.806 4.989c-1.36 0.704-2.471 1.652-3.339 2.847-0.867 1.194-1.499 2.623-1.897 4.286s-0.598 3.433-0.598 5.308c0 1.919 0.2 3.7 0.598 5.341 0.398 1.64 1.03 3.057 1.897 4.25 0.868 1.196 1.979 2.145 3.339 2.847 1.359 0.704 2.974 1.056 4.849 1.056 1.922 0 3.525-0.352 4.814-1.056 1.288-0.702 2.319-1.651 3.093-2.847 0.774-1.193 1.335-2.61 1.687-4.25 0.35-1.641 0.526-3.422 0.526-5.341 0-1.875-0.176-3.645-0.526-5.308-0.352-1.663-0.913-3.092-1.687-4.286-0.774-1.195-1.805-2.143-3.093-2.847-1.289-0.703-2.892-1.053-4.814-1.053-1.875 0-3.49 0.35-4.849 1.053m54.609-5.833h6.183v26.706c0 3.656-1.053 6.301-3.162 7.942-2.107 1.64-4.99 2.459-8.644 2.459-1.968 0-3.983-0.35-6.044-1.053-2.063-0.702-4.076-1.758-6.045-3.163l-1.687 3.654h-4.216v-36.545h6.185v27.55c1.545 1.125 3.162 2.061 4.85 2.812 1.685 0.748 3.442 1.124 5.269 1.124 2.249 0 4.03-0.47 5.342-1.406 1.311-0.937 1.969-2.53 1.969-4.779z" fill="#0033a1"/></g><g transform="translate(150.34 58.936)"><path d="m0 0c1.123 2.389 2.343 5.19 3.654 8.398 1.312 3.209 2.611 6.501 3.901 9.876 1.289 3.372 2.482 6.663 3.584 9.873 1.101 3.209 2.003 6.01 2.707 8.398h-4.006c-0.658-2.155-1.442-4.555-2.355-7.202-0.914-2.649-1.91-5.378-2.987-8.189-1.078-2.81-2.191-5.647-3.339-8.504-1.149-2.858-2.261-5.551-3.338-8.082-1.078 2.531-2.191 5.224-3.339 8.082-1.147 2.857-2.261 5.694-3.338 8.504-1.078 2.811-2.073 5.54-2.987 8.189-0.913 2.647-1.699 5.047-2.355 7.202h-4.004c0.514-1.733 1.042-3.408 1.582-5.023 0.537-1.618 1.159-3.435 1.861-5.448-1.266-3.514-2.659-7.181-4.182-10.999-1.524-3.82-2.963-7.32-4.322-10.507-1.078 2.531-2.191 5.224-3.339 8.082-1.147 2.857-2.261 5.694-3.338 8.504-1.078 2.811-2.074 5.54-2.987 8.189-0.914 2.647-1.697 5.047-2.353 7.202h-4.006c0.701-2.388 1.603-5.189 2.705-8.398 1.101-3.21 2.295-6.501 3.584-9.873 1.287-3.375 2.589-6.667 3.9-9.876 1.312-3.208 2.531-6.009 3.654-8.398h4.149c0.655 1.359 1.357 2.927 2.107 4.708 0.749 1.781 1.511 3.62 2.285 5.517 0.773 1.898 1.511 3.761 2.213 5.588 0.703 1.827 1.335 3.466 1.899 4.92 1.357-3.937 2.787-7.709 4.286-11.315 1.499-3.609 2.881-6.747 4.146-9.418zm24.177 4.99c-1.453 1.265-2.179 3.044-2.179 5.341 0 1.688 0.374 3.081 1.124 4.182 0.749 1.1 1.757 1.98 3.022 2.635 1.266 0.656 2.717 1.114 4.358 1.372 1.639 0.256 3.327 0.385 5.06 0.385 1.029 0 2.061-0.036 3.093-0.105 1.029-0.07 1.709-0.13 2.037-0.176v-11.245c-1.218-1.078-2.729-2.061-4.532-2.951-1.806-0.892-3.879-1.335-6.22-1.335-2.39 0-4.312 0.631-5.763 1.897m-2.391 26.356c1.593 0.656 3.235 1.169 4.92 1.545 1.687 0.374 3.468 0.562 5.342 0.562 3.138 0 5.365-0.726 6.676-2.177 1.312-1.453 1.968-3.68 1.968-6.677v-2.391c-0.516 0.046-1.3 0.106-2.353 0.176-1.056 0.07-1.957 0.106-2.707 0.106-2.061 0-4.136-0.176-6.219-0.528-2.085-0.35-3.971-0.983-5.658-1.897s-3.056-2.155-4.112-3.724c-1.053-1.572-1.581-3.551-1.581-5.94 0-3.654 1.077-6.395 3.232-8.222s4.99-2.741 8.505-2.741c2.109 0 4.03 0.364 5.763 1.09 1.733 0.725 3.49 1.791 5.272 3.196l1.335-3.724h2.319v25.443c0 3.794-0.984 6.686-2.953 8.678-1.967 1.991-5.014 2.986-9.136 2.986-2.249 0-4.206-0.186-5.869-0.562-1.663-0.375-3.245-0.867-4.744-1.475zm30.994 1.545h5.975v-23.613c0-3.515 0.76-6.033 2.283-7.557 1.524-1.523 3.621-2.283 6.292-2.283 1.123 0 2.424 0.13 3.9 0.386 1.475 0.258 3.01 0.762 4.604 1.511v3.585c-1.266-0.798-2.671-1.36-4.218-1.687-1.546-0.328-2.741-0.492-3.585-0.492-1.781 0-3.138 0.492-4.076 1.475-0.937 0.986-1.405 2.391-1.405 4.218v24.457h11.596v3.654h-11.596v10.684l-3.795-0.704v-9.98h-5.975zm57.49-15.461c0.094 0.89 0.14 1.767 0.14 2.635v2.143c0 2.061-0.234 3.994-0.702 5.799-0.469 1.804-1.229 3.373-2.285 4.708-1.053 1.336-2.388 2.401-4.006 3.199-1.615 0.795-3.596 1.193-5.937 1.193-2.531 0-4.768-0.516-6.713-1.545-1.945-1.032-3.584-2.425-4.92-4.182-1.335-1.757-2.353-3.794-3.056-6.113-0.702-2.319-1.054-4.744-1.054-7.275 0-2.671 0.326-5.142 0.984-7.415 0.655-2.273 1.651-4.228 2.986-5.869 1.336-1.639 2.999-2.929 4.99-3.864 1.991-0.938 4.322-1.406 6.993-1.406 0.422 0 1.041 0.024 1.863 0.07 0.82 0.048 1.733 0.164 2.741 0.352 1.007 0.186 2.037 0.444 3.092 0.772 1.054 0.328 2.025 0.773 2.917 1.335v3.726c-1.781-1.031-3.526-1.723-5.236-2.073-1.711-0.351-3.456-0.527-5.235-0.527-1.923 0-3.621 0.351-5.096 1.053-1.477 0.704-2.719 1.687-3.726 2.953-1.008 1.265-1.791 2.775-2.353 4.532-0.564 1.757-0.868 3.69-0.914 5.799zm-8.644 15.145c1.172-0.585 2.109-1.405 2.811-2.461 0.703-1.053 1.195-2.273 1.475-3.654 0.282-1.381 0.422-2.893 0.422-4.532v-0.774h-20.451c0.14 1.5 0.48 2.975 1.02 4.428 0.537 1.452 1.275 2.765 2.213 3.937 0.937 1.169 2.085 2.119 3.444 2.844 1.358 0.728 2.905 1.09 4.638 1.09 1.781 0 3.257-0.292 4.428-0.878m19.609-32.575h3.795v26.496c0.983 1.779 2.434 3.327 4.358 4.638 1.919 1.311 4.076 1.969 6.465 1.969h1.265v3.794c-0.328 0.094-0.622 0.152-0.88 0.176-0.257 0.022-0.573 0.034-0.947 0.034-2.249 0-4.252-0.607-6.009-1.827-1.758-1.217-3.199-2.647-4.322-4.286l-1.266 5.551h-2.459z" fill="#0033a1"/></g><g transform="translate(372.44 31.722)"><path d="m0 0c0 3.284-2.662 5.946-5.946 5.946s-5.947-2.662-5.947-5.946 2.663-5.946 5.947-5.946 5.946 2.662 5.946 5.946m-1.21 0c0-2.616-2.121-4.736-4.736-4.736-2.616 0-4.736 2.12-4.736 4.736s2.12 4.736 4.736 4.736c2.615 0 4.736-2.12 4.736-4.736m-1.61-2.956-1.563 2.209c0.815 0.272 1.359 0.917 1.359 1.902 0 1.394-1.053 2.039-2.48 2.039h-2.889v-6.15h1.496v1.937h0.951l1.325-1.937zm-1.733 4.009c0-0.509-0.374-0.849-1.053-0.849h-1.291v1.699h1.291c0.645 0 1.053-0.306 1.053-0.85" fill="#3155a3"/></g></g></g></svg>
